
<svg width="512" height="512" viewBox="0 0 512 512" fill="none" xmlns="http://www.w3.org/2000/svg">
  <rect width="512" height="512" rx="100" fill="#E15349"/>
  <path d="M256 140C312.228 140 358 185.772 358 242C358 272.222 344.932 299.589 324.406 318.982C349.283 334.404 366.683 359.362 370.996 388.8H339.738C335.108 364.59 315.644 345.69 291.2 341.699V318.982C291.2 318.982 291.2 318.982 291.2 318.982C274.24 331.115 256 338 235.8 338C179.572 338 134 292.228 134 236C134 179.772 179.772 140 236 140H256Z" fill="white"/>
  <circle cx="236" cy="242" r="70" fill="white"/>
  <circle cx="236" cy="242" r="40" fill="#E15349"/>
</svg>
